<svg width="90" height="32" viewBox="0 0 90 32" fill="none" xmlns="http://www.w3.org/2000/svg">
<path d="M24.617 0C24.617 0 32.229 3.42 33.291 9.141C32.928 8.597 31.751 5.179 27.834 6.628C28.578 6.681 31.944 6.707 32.539 10.331C32.124 11.005 32.124 11.16 30.288 12.039L24.437 14.987C24.437 14.987 28.121 13.349 29.423 13.636C30.724 13.923 35.945 15.158 39.596 10.949C39.596 10.949 40.729 9.63 41.134 9.985C40.779 9.615 38.97 8.498 37.501 9.386C37.122 8.37 33.801 1.578 24.617 0Z" fill="#0067FF"/>
<path d="M18.07 21.598C17.155 22.703 16.077 23.544 14.834 24.122C13.591 24.7 12.202 24.989 10.666 24.989C9.28502 24.989 8.00401 24.739 6.82201 24.238C5.63901 23.738 4.61701 23.056 3.75401 22.193C2.89102 21.331 2.20901 20.307 1.70901 19.126C1.20901 17.943 0.959015 16.67 0.959015 15.307C0.959015 13.944 1.20901 12.671 1.70901 11.488C2.20901 10.306 2.89102 9.28299 3.75401 8.41999C4.61701 7.55699 5.63901 6.87599 6.82201 6.37499C8.00401 5.87499 9.28502 5.62399 10.666 5.62399C12.15 5.62399 13.458 5.88299 14.588 6.40099C15.718 6.91899 16.724 7.66999 17.604 8.65299L15.145 11.034C14.592 10.396 13.958 9.88699 13.242 9.50699C12.526 9.12799 11.676 8.93799 10.692 8.93799C9.82902 8.93799 9.01801 9.08899 8.25802 9.39099C7.49902 9.69299 6.83901 10.12 6.27801 10.672C5.71701 11.225 5.27302 11.893 4.94501 12.678C4.61701 13.464 4.45301 14.34 4.45301 15.306C4.45301 16.273 4.61701 17.148 4.94501 17.933C5.27302 18.719 5.71701 19.387 6.27801 19.94C6.83901 20.493 7.49902 20.919 8.25802 21.221C9.01702 21.523 9.82802 21.674 10.692 21.674C11.728 21.674 12.647 21.463 13.449 21.039C14.252 20.617 14.964 20.017 15.585 19.24L18.07 21.598Z" fill="#0067FF"/>
<path d="M20.857 16.579C20.694 16.579 20.538 16.548 20.389 16.485C20.241 16.423 20.111 16.337 20.001 16.226C19.891 16.115 19.804 15.989 19.742 15.845C19.679 15.701 19.649 15.543 19.649 15.37C19.649 15.198 19.68 15.039 19.742 14.895C19.804 14.751 19.89 14.624 20.001 14.514C20.112 14.404 20.241 14.318 20.389 14.255C20.538 14.192 20.694 14.161 20.857 14.161C21.192 14.161 21.48 14.279 21.72 14.514C21.96 14.749 22.08 15.034 22.08 15.369C22.08 15.705 21.96 15.99 21.72 16.225C21.48 16.46 21.193 16.579 20.857 16.579ZM19.922 24.575V17.527H21.806V24.575H19.922Z" fill="#0067FF"/>
<path d="M24.237 19.139H23V17.528H24.237V15.37H26.121V17.527H27.847V19.138H26.121V21.954C26.121 22.122 26.138 22.277 26.171 22.421C26.204 22.565 26.269 22.685 26.365 22.784C26.499 22.942 26.691 23.02 26.94 23.02C27.103 23.02 27.232 23.003 27.328 22.97C27.424 22.937 27.515 22.891 27.601 22.833L28.133 24.487C27.912 24.592 27.675 24.672 27.421 24.724C27.167 24.776 26.886 24.803 26.579 24.803C26.225 24.803 25.906 24.746 25.623 24.634C25.34 24.522 25.102 24.367 24.911 24.171C24.46 23.731 24.235 23.105 24.235 22.292V19.139H24.237Z" fill="#0067FF"/>
<path d="M31.515 24.23L28.552 17.527H30.695L32.478 21.799H32.579L34.291 17.527H36.391L31.975 27.681H29.947L31.515 24.23Z" fill="#0067FF"/>
<path d="M40.647 14.277H47.176V16.118H42.588V18.621H46.716V20.462H42.588V24.575H40.647V14.277Z" fill="#0067FF"/>
<path d="M48.443 24.575V14.277H50.327V24.575H48.443Z" fill="#0067FF"/>
<path d="M54.152 24.23L51.189 17.527H53.332L55.116 21.799H55.217L56.928 17.527H59.029L54.613 27.681H52.586L54.152 24.23Z" fill="#0067FF"/>
<path d="M66.276 22.878C65.951 23.453 65.511 23.919 64.961 24.274C64.409 24.628 63.735 24.806 62.94 24.806C62.403 24.806 61.907 24.712 61.451 24.525C60.996 24.338 60.6 24.078 60.264 23.742C59.928 23.406 59.667 23.011 59.481 22.555C59.294 22.1 59.2 21.598 59.2 21.052C59.2 20.543 59.292 20.062 59.473 19.607C59.656 19.151 59.91 18.753 60.236 18.413C60.561 18.073 60.948 17.802 61.393 17.6C61.839 17.399 62.331 17.298 62.868 17.298C63.433 17.298 63.937 17.391 64.378 17.578C64.819 17.765 65.189 18.023 65.485 18.354C65.783 18.685 66.007 19.076 66.162 19.527C66.315 19.977 66.391 20.466 66.391 20.994C66.391 21.061 66.391 21.118 66.391 21.167C66.381 21.224 66.377 21.276 66.377 21.325C66.367 21.373 66.362 21.426 66.362 21.483H61.054C61.092 21.77 61.171 22.017 61.291 22.223C61.411 22.429 61.56 22.602 61.737 22.741C61.914 22.881 62.108 22.981 62.319 23.043C62.53 23.106 62.746 23.137 62.966 23.137C63.398 23.137 63.755 23.039 64.037 22.842C64.32 22.646 64.543 22.399 64.706 22.102L66.276 22.878ZM64.565 20.146C64.555 20.021 64.514 19.882 64.443 19.729C64.371 19.576 64.265 19.431 64.127 19.297C63.987 19.163 63.814 19.053 63.608 18.966C63.402 18.88 63.156 18.837 62.868 18.837C62.466 18.837 62.11 18.951 61.804 19.182C61.498 19.413 61.282 19.734 61.157 20.146H64.565Z" fill="#0067FF"/>
<path d="M67.601 17.527H69.37V18.506H69.485C69.571 18.333 69.686 18.175 69.831 18.031C69.975 17.887 70.135 17.761 70.312 17.655C70.489 17.549 70.681 17.462 70.887 17.396C71.093 17.33 71.297 17.297 71.498 17.297C71.747 17.297 71.961 17.323 72.138 17.377C72.316 17.43 72.467 17.499 72.591 17.584L72.088 19.267C71.973 19.21 71.846 19.164 71.707 19.131C71.567 19.097 71.397 19.08 71.196 19.08C70.937 19.08 70.702 19.131 70.491 19.232C70.28 19.333 70.1 19.475 69.952 19.658C69.803 19.842 69.688 20.055 69.606 20.302C69.525 20.548 69.484 20.816 69.484 21.105V24.575H67.6L67.601 17.527Z" fill="#0067FF"/>
<path d="M75.957 24.806C75.497 24.806 75.087 24.748 74.728 24.633C74.369 24.518 74.056 24.366 73.792 24.18C73.528 23.994 73.306 23.778 73.124 23.533C72.941 23.289 72.803 23.042 72.706 22.793L74.39 22.073C74.552 22.438 74.771 22.709 75.044 22.886C75.317 23.064 75.621 23.153 75.957 23.153C76.302 23.153 76.575 23.09 76.776 22.965C76.978 22.841 77.079 22.693 77.079 22.52C77.079 22.329 76.995 22.172 76.827 22.052C76.659 21.933 76.369 21.824 75.957 21.729L74.965 21.513C74.744 21.465 74.517 21.388 74.281 21.283C74.045 21.178 73.833 21.044 73.641 20.881C73.449 20.718 73.29 20.522 73.166 20.291C73.041 20.061 72.978 19.793 72.978 19.485C72.978 19.14 73.052 18.834 73.202 18.565C73.35 18.296 73.554 18.069 73.813 17.881C74.072 17.694 74.376 17.55 74.726 17.449C75.076 17.348 75.452 17.299 75.855 17.299C76.526 17.299 77.126 17.431 77.653 17.695C78.18 17.959 78.568 18.378 78.818 18.953L77.193 19.615C77.058 19.337 76.862 19.136 76.603 19.011C76.344 18.887 76.085 18.824 75.826 18.824C75.557 18.824 75.323 18.879 75.122 18.989C74.921 19.099 74.819 19.241 74.819 19.414C74.819 19.577 74.903 19.706 75.071 19.802C75.239 19.899 75.467 19.985 75.755 20.061L76.833 20.321C77.553 20.493 78.087 20.769 78.437 21.147C78.787 21.526 78.961 21.974 78.961 22.492C78.961 22.8 78.889 23.092 78.745 23.37C78.601 23.648 78.397 23.894 78.134 24.11C77.871 24.326 77.554 24.497 77.185 24.621C76.817 24.743 76.407 24.806 75.957 24.806Z" fill="#0067FF"/>
</svg>
